PathFileType	4	(X/Y/Z)	Run_200 02
DataRate	CameraRate	NumFrames	NumMarkers	Units	OrigDataRate	OrigDataStartFrame	OrigNumFrames
120	120	4	42	mm	120	86	128
Frame#	Time	LASI			RASI			LPSI			RPSI			RTH1			RTH2			RTH3			LTH1			LTH2			LTH3			RTB1			RTB2			RTB3			LTB1			LTB2			LTB3			RCAL			RTOE			RMT5			LCAL			LTOE			LMT5			LACR			RACR			CLAV			C7			RUA1			RUA2			RUA3			RLEL			RMEL			LUA1			LUA2			LUA3			LLEL			LMEL			RFAsuperior			RFAradius			RFAulna			LFAsuperior			LFAradius			LFAulna		
		X1	Y1	Z1	X2	Y2	Z2	X3	Y3	Z3	X4	Y4	Z4	X5	Y5	Z5	X6	Y6	Z6	X7	Y7	Z7	X8	Y8	Z8	X9	Y9	Z9	X10	Y10	Z10	X11	Y11	Z11	X12	Y12	Z12	X13	Y13	Z13	X14	Y14	Z14	X15	Y15	Z15	X16	Y16	Z16	X17	Y17	Z17	X18	Y18	Z18	X19	Y19	Z19	X20	Y20	Z20	X21	Y21	Z21	X22	Y22	Z22	X23	Y23	Z23	X24	Y24	Z24	X25	Y25	Z25	X26	Y26	Z26	X27	Y27	Z27	X28	Y28	Z28	X29	Y29	Z29	X30	Y30	Z30	X31	Y31	Z31	X32	Y32	Z32	X33	Y33	Z33	X34	Y34	Z34	X35	Y35	Z35	X36	Y36	Z36	X37	Y37	Z37	X38	Y38	Z38	X39	Y39	Z39	X40	Y40	Z40	X41	Y41	Z41	X42	Y42	Z42	

86	  0.716667	886.017151	1060.170775	-466.487707	897.507029	1039.413019	-202.423752	709.448155	1087.642583	-360.868282	712.601505	1074.739638	-281.075223	867.244921	865.418848	-163.259015	954.999967	777.791049	-174.281203	915.755893	655.308527	-197.463021	840.627712	847.324347	-512.434794	918.844589	733.486538	-496.684933	872.991798	614.271318	-467.600400	909.652551	423.870481	-272.631254	846.539050	408.701778	-198.370066	787.052801	325.596392	-261.767459	910.289780	384.265548	-381.643880	853.023802	306.992449	-430.399214	820.881081	205.470998	-354.052722	566.986340	365.740574	-255.588748	676.529872	159.638566	-261.170201	622.490880	206.497467	-171.046259	660.205063	103.469214	-333.613601	894.419064	 72.291551	-319.740536	820.233105	 53.702907	-410.951997	910.992999	1499.825652	-508.399408	903.200779	1521.056565	-156.998501	959.998421	1456.285533	-296.791125	838.623381	1554.421275	-333.797825	857.718747	1418.772604	-85.965212	831.448527	1330.957370	-95.051450	758.364815	1345.737216	-71.037779	697.538498	1222.358298	-29.132212	674.968735	1219.677328	-108.253955	889.006957	1404.207381	-578.907718	897.971615	1331.372532	-570.089264	802.030250	1318.842334	-579.452921	806.912091	1161.088436	-641.395810	753.983477	1147.887986	-572.373866	780.248974	1147.925745	-25.683585	903.226527	1039.749625	-102.561418	863.061871	1005.182488	-52.107749	900.903031	1146.513558	-607.899557	1033.043815	1137.683253	-481.959920	1031.752777	1074.442547	-517.166385	
87	  0.725000	884.662308	1061.237208	-465.803352	897.612764	1041.092048	-203.331040	708.812582	1089.434030	-359.905155	712.268097	1076.795308	-279.957060	869.111695	868.250868	-162.935423	959.233869	782.599131	-174.375858	922.580262	659.481988	-197.286619	836.805202	848.394430	-512.203285	912.548528	733.079819	-496.419773	863.356286	614.442917	-467.800361	922.410623	425.795096	-273.286735	860.068846	409.007662	-198.643997	800.119710	326.064330	-261.794967	896.646797	383.136609	-382.905044	838.217121	306.630342	-430.270920	805.412123	205.287853	-354.191682	581.706947	354.984331	-254.608731	700.868961	154.194259	-261.370074	644.982735	198.289696	-170.808491	643.636771	104.197664	-333.362317	877.784744	 71.911353	-319.877306	803.419903	 53.713541	-411.069466	913.480324	1503.135545	-507.886069	902.016943	1522.144165	-156.601518	959.805328	1458.054020	-295.905245	838.854468	1556.182955	-334.025458	853.829394	1421.424582	-85.425215	825.816200	1334.378783	-93.987136	752.492833	1350.971675	-71.810685	688.456785	1228.997251	-29.820575	666.522916	1226.840184	-109.057602	893.912453	1407.210633	-577.979682	903.010698	1334.288890	-568.969137	807.102707	1321.413464	-579.676706	813.777470	1162.408156	-639.565384	761.394454	1148.673088	-569.963082	768.949429	1152.472376	-25.612384	890.659498	1042.215359	-101.550903	848.781777	1008.206380	-52.195183	908.098351	1150.633294	-605.447807	1039.534918	1146.057667	-478.836358	1040.593226	1082.680313	-513.680126	
88	  0.733333	883.498625	1062.640867	-464.943907	898.028128	1043.141823	-204.298536	708.386713	1091.633896	-358.828177	712.126849	1079.236993	-278.691705	871.151144	871.396494	-162.434809	963.102636	787.739412	-174.371352	928.987456	664.073512	-196.830944	833.180517	849.716896	-511.878332	905.652138	732.615144	-495.906399	853.069035	614.934279	-467.450253	934.744461	427.705082	-273.969087	873.291557	409.143341	-198.975834	812.884265	326.362801	-261.907105	882.590702	382.621780	-383.984507	823.248868	306.631195	-429.854664	789.832640	205.411950	-354.067797	596.844121	343.231610	-254.052091	725.850361	148.455569	-261.901156	668.177989	189.766872	-170.876270	627.329014	105.102290	-333.093259	861.135360	 71.610031	-320.095206	786.661770	 53.814085	-411.082585	916.395005	1507.243118	-507.107796	900.831705	1523.547984	-156.113885	959.714409	1460.311635	-294.895294	839.361296	1558.482921	-334.062638	849.717991	1424.800133	-84.751216	819.841111	1338.523196	-92.765883	746.518050	1356.951855	-71.970361	679.217252	1236.582730	-30.392269	657.533810	1235.094033	-109.652428	898.612077	1411.141766	-576.940956	907.597270	1338.310306	-567.812400	811.898121	1325.044819	-579.750512	819.811984	1164.964792	-637.467263	767.992024	1150.893081	-567.296520	758.312305	1158.864724	-25.830563	878.394782	1046.882155	-101.513534	835.645331	1013.594898	-52.403118	914.426322	1156.323114	-602.344058	1044.986383	1155.955270	-475.767386	1048.530514	1092.470444	-510.201056	
89	  0.741667	882.657451	1064.300413	-464.230904	898.639072	1045.693830	-205.111876	708.296011	1094.294036	-357.802674	712.086666	1082.166029	-277.400592	873.330534	874.904476	-161.767190	966.614354	793.174160	-174.254077	934.916769	669.043855	-196.071442	829.263364	851.118861	-511.295604	898.070397	732.094193	-495.135022	842.253500	615.729594	-466.586487	946.599790	429.781319	-274.538086	886.264746	409.085836	-199.315013	825.220084	326.578681	-262.027424	868.109016	382.620051	-384.517320	808.095639	307.022162	-429.192539	774.135636	205.870586	-353.709895	612.517190	330.594845	-253.947589	751.319601	142.558034	-262.758047	691.965035	180.967556	-171.305282	611.296464	106.228491	-332.808790	844.505788	 71.286197	-320.249066	769.944420	 54.005906	-410.930799	919.496666	1511.992513	-506.016968	899.618567	1525.321236	-155.648673	959.707397	1463.024238	-293.763616	840.051552	1561.222657	-333.888883	845.620536	1428.848869	-83.977772	813.802031	1343.274278	-91.682705	740.719034	1363.617905	-71.658495	670.022054	1245.021730	-31.053093	648.367559	1244.267947	-110.284920	902.903027	1415.856445	-575.832176	911.604965	1343.256092	-566.601931	816.311216	1329.323572	-579.465694	825.172139	1168.492092	-635.167264	773.780996	1154.342958	-564.551412	748.269350	1166.705386	-26.309790	866.573444	1053.251023	-102.129222	823.559777	1020.730117	-52.622558	919.879845	1162.895987	-598.889526	1049.588152	1166.925447	-472.678993	1055.594955	1103.394938	-506.706357	
